<svg width="74" height="51" viewBox="0 0 74 51" fill="none" xmlns="http://www.w3.org/2000/svg">
<path d="M46.7201 37.288C44.8702 37.9438 42.6367 37.8758 40.9506 36.7963C39.2964 35.7327 37.7861 34.965 35.7484 35.005C33.9264 35.037 32.4241 36.0246 30.658 36.2325C29.2596 36.4004 27.8412 35.7887 26.8263 34.8091C25.8354 33.8535 25.1801 32.3981 25.6116 31.0907C25.8354 30.4069 26.3308 29.8432 26.6105 29.1794C27.2578 27.6521 25.5517 26.7285 25.9752 25.1172C26.3348 23.7497 27.8372 22.7701 27.8132 21.3547C27.7972 20.3192 26.9941 19.5155 26.7144 18.5559C26.4307 17.5883 26.4907 16.5048 26.9941 15.6211C27.3617 14.9734 27.957 14.4416 28.6443 14.1458C29.2596 13.8819 29.9508 13.8779 30.4263 13.3381C31.2773 12.3745 31.589 11.3349 32.7557 10.6312C33.7426 10.0355 35.0491 9.9995 36.1839 10.1035C38.7011 10.3354 41.1463 11.6668 42.5648 13.7819C43.0682 14.5336 43.4318 15.3013 43.4438 16.1929C43.4558 17.1685 43.4558 18.1481 44.0551 18.9797C44.5585 19.6754 45.3617 20.0833 46.1608 20.3991C46.9599 20.715 47.7949 20.9669 48.4982 21.4627C49.1974 21.9585 49.7568 22.7661 49.6729 23.6218C49.6049 24.3375 49.1095 24.9572 49.0455 25.6729C48.9257 26.9724 50.1763 27.92 50.9514 28.9715C52.0342 30.4469 52.21 32.53 51.3989 34.1694C50.464 36.0566 48.7619 36.4804 46.9759 37.1881C46.8919 37.2241 46.804 37.2561 46.7201 37.288Z" fill="#0B2D4E"/>
<path d="M33.2578 12.9664C33.8691 12.6066 34.5803 12.4426 35.2876 12.4146C35.9988 12.3866 36.706 12.4786 37.3972 12.6505C38.7797 12.9984 40.0383 13.822 40.9133 14.9536C41.3488 15.5213 41.6844 16.1691 41.8802 16.8608C42.08 17.5525 42.1199 18.2762 42.112 18.9879C42.104 19.6996 42.056 20.4033 42.076 21.103C42.092 21.4508 42.1319 21.7947 42.2398 22.1185C42.3437 22.4424 42.5235 22.7383 42.7912 22.9342C43.0549 23.1341 43.3905 23.2181 43.7341 23.2581C44.0778 23.298 44.4334 23.302 44.789 23.35C45.4962 23.446 46.2114 23.6139 46.8267 24.0177C47.1304 24.2217 47.4021 24.5015 47.5339 24.8574C47.6698 25.2132 47.6418 25.6011 47.5499 25.9529C47.442 26.3128 47.2422 26.6127 47.0984 26.9245C46.9586 27.2364 46.8667 27.5762 46.8347 27.9201C46.7708 28.6118 46.9466 29.3035 47.1903 29.9592C47.43 30.619 47.7217 31.2707 47.8895 31.9664C47.9734 32.3143 48.0214 32.6701 48.0174 33.026C48.0134 33.3818 47.9495 33.7377 47.8336 34.0735C47.6018 34.7452 47.1623 35.345 46.599 35.7688C47.1543 35.333 47.5739 34.7292 47.7896 34.0615C48.0134 33.3898 47.9814 32.6661 47.7976 31.9904C47.6218 31.3107 47.3261 30.6669 47.0744 30.0032C46.8187 29.3435 46.6229 28.6318 46.6829 27.9041C46.7108 27.5443 46.8027 27.1884 46.9466 26.8526C47.0944 26.5207 47.2902 26.2248 47.3821 25.901C47.466 25.5731 47.486 25.2252 47.3661 24.9174C47.2502 24.6055 47.0065 24.3536 46.7268 24.1697C46.1554 23.7938 45.4562 23.6299 44.769 23.5419C44.4254 23.498 44.0738 23.498 43.7142 23.458C43.3586 23.418 42.983 23.33 42.6753 23.0981C42.3677 22.8702 42.1679 22.5304 42.06 22.1825C41.9481 21.8307 41.9042 21.4708 41.8922 21.111C41.8722 20.3953 41.9242 19.6916 41.9361 18.9879C41.9481 18.2842 41.9082 17.5805 41.7204 16.9127C41.5286 16.245 41.213 15.6133 40.7974 15.0535C39.9583 13.938 38.7317 13.1143 37.3772 12.7545C36.702 12.5706 35.9988 12.4626 35.2955 12.4746C34.5883 12.4786 33.8811 12.6225 33.2578 12.9664Z" fill="#73B8D4"/>
<path d="M42.1683 28.6445C42.2322 30.2438 41.8647 31.4433 40.4023 32.235C39.2396 32.8668 37.8451 33.0707 36.5626 33.1027C34.409 33.1546 32.0076 32.5989 30.3974 31.0875C30.1058 30.8116 29.8261 30.4757 29.8021 30.0759C29.7821 29.7121 29.9819 29.3682 30.0019 29.0044C30.0298 28.3886 29.5544 27.8808 29.3426 27.3051C29.0589 26.5414 29.2507 25.6937 29.5064 24.9221C29.7581 24.1504 30.0778 23.3707 30.0378 22.559C29.9899 21.5075 29.3546 20.5879 28.8512 19.6642C28.3437 18.7406 27.9482 17.6171 28.3797 16.6535C28.6634 16.0218 29.3426 15.534 30.0378 15.458C30.773 15.378 31.4323 16.2137 31.8998 16.6775C32.5311 17.3012 33.2383 17.849 33.9934 18.3088C35.0403 18.9445 36.195 19.4163 37.1779 20.144C37.7732 20.5839 38.4165 21.1916 38.7002 21.8953C39.0198 22.687 38.4604 23.4547 39.1397 24.1824C39.5792 24.6542 40.2505 24.8141 40.7819 25.1779C41.9206 25.9496 42.1164 27.385 42.1683 28.6445Z" fill="#061F33"/>
<path d="M30.2796 37.5887C31.7899 35.2577 32.7329 32.3949 31.4183 29.764C31.2865 29.4961 31.1267 29.2043 30.843 29.1123C30.2356 28.9084 29.4086 29.1283 28.8812 29.4362C27.0472 30.5117 25.9244 32.5388 24.8936 34.3421C23.8228 36.2173 22.8918 38.1644 21.817 40.0357C21.3815 40.7953 20.942 41.563 20.7063 42.4026C20.5025 43.1423 20.4785 43.986 20.7582 44.7057C21.9649 47.8283 25.2892 44.002 26.3 42.8465C27.7424 41.2072 29.0889 39.4279 30.2796 37.5887Z" fill="#26A8D1"/>
<path d="M43.9596 34.9813C44.3951 33.1381 44.6189 31.2549 43.636 29.9994C43.1925 29.4317 42.3973 29.0398 41.7501 28.7559C40.4835 28.2082 39.1929 27.4725 37.8384 27.2366C36.412 26.9847 34.8218 26.8288 33.3994 27.1886C32.4964 27.4165 31.6493 27.8403 30.8422 28.2961C30.139 28.692 29.28 29.0318 28.9404 29.7675C28.1173 31.5508 27.3821 33.414 26.7748 35.2812C26.2673 36.8445 25.708 38.4838 26.5111 40.0711C26.7708 40.5829 27.1464 41.0227 27.446 41.5145C27.7776 42.0623 27.9015 42.5741 27.9415 43.2058C28.0414 44.6452 28.0014 46.0886 27.9974 47.528C27.9974 47.9438 28.0014 48.3756 28.1852 48.7475C28.5448 49.4831 29.5157 49.4951 30.2189 49.4911C32.5283 49.4871 34.8418 49.4831 37.1512 49.4791C38.1141 49.4791 38.8493 49.5951 39.7483 49.779C40.5075 49.9349 41.1587 49.5511 41.5263 48.8434C41.8699 48.1757 41.8979 47.392 41.9339 46.6403C42.0777 43.7136 42.4932 40.7988 43.1725 37.948C43.3603 37.1484 43.6999 36.0928 43.9596 34.9813Z" fill="#3DC8E8"/>
<path d="M38.6108 29.6237C39.1542 28.7081 39.278 27.5646 38.5668 26.681C38.2392 26.2771 37.6638 26.2332 37.1724 26.2212C36.2015 26.2012 35.2305 26.3051 34.2876 26.529C33.3886 26.7409 32.4696 27.0968 32.078 28.0084C31.7864 28.6841 31.8902 29.4677 32.2698 30.0835C32.6174 30.6432 33.1928 31.059 33.8321 31.215C34.8669 31.4628 36.0816 31.4269 37.0685 31.015C37.6878 30.7512 38.2432 30.2394 38.6108 29.6237Z" fill="#26A8D1"/>
<path d="M44.7777 43.4263C44.7697 42.0149 44.7617 40.6035 44.7577 39.1881C44.7537 38.6963 45.0733 35.7056 44.3102 35.7376C44.2263 35.7416 44.1504 35.7855 44.0864 35.8335C43.7069 36.1054 43.5111 36.5612 43.3313 36.993C42.7759 38.3484 42.3084 40.5195 41.1457 41.4711C39.967 42.4347 38.1531 42.8425 36.6907 43.0744C34.9806 43.3463 33.2425 43.3663 31.5125 43.4703C30.3937 43.5382 29.1591 43.6982 28.4279 44.5458C27.9045 45.1495 27.6368 46.0572 27.3571 46.7928C27.1134 47.4366 26.9176 48.2042 27.413 48.788C27.6248 49.0359 27.9205 49.1998 28.2161 49.3398C29.2949 49.8475 30.4736 50.1034 31.6483 50.3034C34.9406 50.8551 38.2929 50.9711 41.6292 50.8111C42.3404 50.7751 43.1155 50.7072 43.6389 50.2234C44.0305 49.8635 44.2143 49.3358 44.3462 48.82C44.7937 47.0687 44.7857 45.2335 44.7777 43.4263Z" fill="#26A8D1"/>
<path d="M29.0166 19.3087C27.754 20.6081 28.9007 23.7789 30.9105 23.3191C33.072 22.8273 32.7444 19.4566 30.7906 18.9008C30.0314 18.6889 29.4241 18.8888 29.0166 19.3087Z" fill="#9B87FF"/>
<path d="M46.2283 37.0733C47.4909 37.2332 48.8254 37.1253 49.9522 36.5335C51.3906 35.7818 52.1098 34.4024 52.1377 32.8151C52.1577 31.6636 51.938 30.4681 51.2427 29.5485C50.4876 28.5529 49.225 27.9371 48.7535 26.7776C48.4499 26.0259 48.5218 25.0064 49.1251 24.4226C49.5087 24.0548 49.8083 23.6349 49.7564 23.0832C49.6845 22.2675 49.0891 21.4838 48.4219 21.044C47.447 20.3963 46.2323 20.1604 45.0896 20.0165C44.3145 19.9165 43.5433 19.7006 43.3036 18.8649C43.1757 18.4131 43.1997 17.9413 43.1757 17.4775C43.1238 16.4899 43.0519 15.5064 42.904 14.5268C42.7362 13.3992 42.005 12.3117 41.1899 11.536C41.0741 11.4241 40.9502 11.3161 40.8263 11.2162C38.7247 9.51288 34.833 8.90913 32.5156 10.4885C31.7245 11.0282 31.1731 11.8519 30.9973 12.7915C30.8814 13.4192 30.7096 13.5552 30.0943 13.7471C28.9795 14.095 27.709 14.3388 26.8259 15.1585C26.1307 15.7982 25.8151 16.7698 25.907 17.7014C26.0228 18.8889 26.8539 19.4607 27.4492 20.4003C28.0566 21.3639 27.5771 22.5714 26.8739 23.3671C26.3305 23.9788 25.5594 24.4266 25.2517 25.1823C24.968 25.878 25.1558 26.6857 25.4954 27.3574C25.6353 27.6293 25.7951 27.8892 25.919 28.169C26.2905 29.0207 26.2506 30.0363 25.8191 30.8599" stroke="#0B2D4E" stroke-width="4" stroke-miterlimit="10"/>
<path d="M49.8144 38.9159C50.2019 39.6156 50.5855 40.3113 50.9611 41.015C51.7282 42.4424 53.1467 45.6131 50.8732 46.3968C49.7265 46.7926 49.0712 46.4048 48.312 45.5691C45.4432 42.4064 42.998 38.8639 41.0641 35.0575C40.3449 33.6421 38.4271 29.9517 40.7525 29.112C41.4877 28.8442 42.3347 28.9081 43.0219 29.28C43.3376 29.4479 43.6173 29.6758 43.881 29.9157C45.5591 31.4151 46.7538 33.3463 47.8166 35.3054C48.4759 36.5129 49.1511 37.7124 49.8144 38.9159Z" fill="#3DC8E8"/>
<path d="M36.6368 30.0915C37.3281 29.8676 37.8994 29.4398 38.1152 28.7521C38.311 28.1323 38.0033 27.4326 37.9474 26.8049C37.8954 26.2051 37.8874 25.6014 37.9274 24.9977C37.9633 24.4419 38.0153 23.8621 37.9314 23.3064C37.8834 22.9905 37.7076 23.0425 37.388 22.9185C37.0683 22.7946 36.7087 22.7906 36.3611 22.7906C35.6499 22.7906 33.792 22.7386 33.3485 23.3664C33.1447 23.6542 33.1288 24.0141 33.1208 24.3579C33.1088 24.7698 33.0369 25.3055 32.9689 25.8813C32.937 26.1372 32.9569 26.3931 32.917 26.6489C32.873 26.9328 32.7652 27.2087 32.6693 27.4806C32.3097 28.5122 32.6453 29.4957 33.764 29.9715C34.5671 30.3114 35.7139 30.3874 36.6368 30.0915Z" fill="#F8A17A"/>
<path d="M37.9305 23.3064C37.8826 22.9905 37.7068 23.0425 37.3871 22.9185C37.0675 22.7946 36.7079 22.7906 36.3603 22.7906C35.6491 22.7906 33.7912 22.7386 33.3476 23.3663C33.1439 23.6542 33.1279 24.0141 33.1199 24.3579C33.1079 24.7697 33.036 25.3055 32.9681 25.8812C32.9361 26.1371 32.9561 26.393 32.9161 26.6489C32.8842 26.8648 32.8122 27.0767 32.7363 27.2846C33.4276 27.5405 34.2067 27.6004 34.9299 27.4205C36.2284 27.1007 37.2113 26.293 37.9146 25.2415C37.9186 25.1615 37.9225 25.0776 37.9265 24.9976C37.9625 24.4419 38.0144 23.8621 37.9305 23.3064Z" fill="#E5785C"/>
<path d="M38.9645 19.2359C38.9605 18.2843 38.8287 17.3807 38.5809 16.629C37.5261 13.3904 33.4906 12.5908 31.0573 14.9178C28.3483 17.5087 29.3832 23.706 32.24 25.8811C33.0032 26.4649 34.042 26.6688 34.969 26.4169C37.7738 25.6652 38.9805 22.2107 38.9645 19.2359Z" fill="#F8A17A"/>
<path d="M38.4322 19.3165C39.6749 18.6368 40.0544 20.3561 39.8427 21.2117C39.7548 21.5635 39.6149 21.9114 39.3952 22.1993C39.0995 22.5911 38.2564 23.2428 37.769 22.811C37.5492 22.6151 37.5252 22.2872 37.5172 21.9914C37.5013 21.2077 37.5892 19.7763 38.4322 19.3165Z" fill="#F8A17A"/>
<path d="M34.3916 24.9818C34.088 24.9818 33.7803 24.9578 33.4727 24.9138L33.5286 24.542C34.6434 24.7059 35.7541 24.55 36.741 24.0942C37.0087 23.9702 37.2365 23.8383 37.4362 23.6943C37.7998 23.4304 38.1115 23.0866 38.3352 22.6987L38.6589 22.8907C38.4072 23.3225 38.0595 23.7063 37.656 23.9982C37.4362 24.1581 37.1885 24.2981 36.8968 24.434C36.1177 24.7979 35.2627 24.9818 34.3916 24.9818Z" fill="#8070F2"/>
<path d="M32.3854 24.2472C32.8409 23.8556 33.8477 23.8916 34.1834 24.2951C34.4311 24.5948 34.3552 24.9744 34.0835 25.2301C33.7638 25.5298 33.3643 25.5138 32.9647 25.4219C32.4573 25.306 31.838 24.7147 32.3854 24.2472Z" fill="#8070F2"/>
<path d="M38.9705 16.7616C37.8597 13.355 33.6085 12.5114 31.0513 14.9583C30.4879 15.4981 30.0764 16.1898 29.8047 16.9655C29.8606 17.0534 29.9246 17.1414 30.0005 17.2294C30.3521 17.6372 30.8355 17.9011 31.323 18.129C32.7454 18.7887 34.2837 19.1725 35.826 19.4644C35.9379 19.4844 36.0537 19.5084 36.1696 19.5284C36.5931 19.6123 37.0167 19.7163 37.3882 19.9362C38.4351 20.5559 37.9876 21.9153 38.7547 22.5111C38.8226 22.5631 38.8946 22.5991 38.9665 22.623C39.2502 21.6075 39.382 20.5319 39.378 19.5044C39.366 18.5048 39.2302 17.5532 38.9705 16.7616Z" fill="#E5785C"/>
<path d="M36.2804 19.1392C36.688 19.2912 37.0875 19.4591 37.4151 19.735C38.3501 20.5107 37.6908 21.7822 38.3541 22.4939C38.9414 23.1256 39.8325 22.2899 40.0682 21.7102C40.4997 20.6386 40.4717 19.4471 40.4398 18.2916C40.4238 17.6479 40.4038 16.9961 40.216 16.3804C40.0123 15.7087 39.6087 15.1089 39.1332 14.5931C37.7548 13.1057 35.6771 12.33 33.6633 12.458C32.0891 12.558 29.3281 13.8814 30.5628 15.8886C30.8425 16.3444 31.282 16.6843 31.7255 16.9881C33.028 17.8678 34.4784 18.4915 35.9568 19.0233C36.0607 19.0593 36.1725 19.0993 36.2804 19.1392Z" fill="#0B2D4E"/>
<path d="M38.9539 18.8243C37.1999 19.2721 36.5246 22.5786 38.4785 23.2343C40.5801 23.942 42.0585 20.8954 40.68 19.4041C40.1446 18.8243 39.5213 18.6804 38.9539 18.8243Z" fill="#9B87FF"/>
<path d="M39.5287 19.2477C38.3181 19.4437 37.5749 22.0146 38.8215 22.7223C40.16 23.4819 41.4186 21.1909 40.6315 19.8715C40.3238 19.3597 39.9203 19.1878 39.5287 19.2477Z" fill="#8070F2"/>
<path d="M39.7723 19.0563L39.3048 19.0003C39.6204 16.2575 39.4886 12.755 37.0433 11.6354C35.8846 11.1037 32.5723 10.5159 31.1139 12.4871C30.9381 12.683 30.8223 12.8509 30.8223 12.8509C31.7253 10.0561 35.9925 10.6359 37.2431 11.2076C39.9401 12.4471 40.1079 16.1615 39.7723 19.0563Z" fill="#9B87FF"/>
<path d="M30.9999 44.9409H21.3906V46.824H30.9999V44.9409Z" fill="#B8D1CE"/>
<path d="M23.0411 45.125L20.6158 32.7703C20.5519 32.4424 20.2642 32.2065 19.9326 32.2065H3.80654C3.5748 32.2065 3.37503 32.3225 3.24717 32.4944L3.24317 32.4904L2.5 33.37L3.15927 33.2261L5.54861 45.3929C5.61253 45.7208 5.90021 45.9567 6.23184 45.9567H22.3539C22.7934 45.9527 23.125 45.5528 23.0411 45.125Z" fill="#B8D1CE"/>
<path d="M5.49671 46.8243H21.6188C22.0583 46.8243 22.3859 46.4245 22.302 45.9927L19.8767 33.6379C19.8128 33.31 19.5251 33.0781 19.1935 33.0781H3.07141C2.6319 33.0781 2.30426 33.478 2.38817 33.9098L4.81347 46.2646C4.8774 46.5884 5.16508 46.8243 5.49671 46.8243Z" fill="white"/>
<path d="M10.5672 39.6431C10.715 40.4748 11.5102 41.1505 12.3452 41.1505C13.1803 41.1505 13.7237 40.4748 13.5639 39.6431C13.4041 38.8115 12.6089 38.1357 11.7859 38.1357C10.9628 38.1357 10.4194 38.8115 10.5672 39.6431Z" fill="#B8D1CE"/>
<path d="M56.8506 39.4463C57.0264 39.0784 56.9984 38.6906 56.8825 38.3427C56.7746 37.9829 56.5829 37.675 56.3751 37.3391C56.1633 37.0073 55.9516 36.6434 55.8197 36.2076C55.6879 35.7678 55.7238 35.272 55.8477 34.8521C56.1114 33.9965 56.6548 33.3687 57.0304 32.725C57.2182 32.4011 57.37 32.0692 57.4299 31.7014C57.4978 31.3375 57.4739 30.9537 57.2981 30.5898C57.6057 30.8617 57.7576 31.2976 57.7775 31.7214C57.7975 32.1492 57.6896 32.585 57.5258 32.9689C57.2022 33.7446 56.7147 34.3723 56.5269 35.056C56.419 35.3919 56.3951 35.7198 56.471 36.0477C56.5349 36.3835 56.7107 36.7194 56.8665 37.0872C57.0344 37.4471 57.1942 37.8589 57.2301 38.2828C57.2581 38.6986 57.1622 39.1704 56.8506 39.4463Z" fill="white"/>
<path d="M58.4129 46.7837H55.62C55.0686 46.7837 54.6211 46.3359 54.6211 45.7841V39.9146H59.4117V45.7841C59.4117 46.3359 58.9642 46.7837 58.4129 46.7837Z" fill="#9B87FF"/>
<path d="M59.7477 41.4702C58.597 41.4702 57.666 42.4178 57.666 43.5814C57.666 44.7489 58.597 45.6925 59.7477 45.6925C60.8984 45.6925 61.8293 44.7449 61.8293 43.5814C61.8254 42.4178 60.8944 41.4702 59.7477 41.4702ZM59.7477 44.9408C59.0085 44.9408 58.4092 44.3331 58.4092 43.5814C58.4092 42.8297 59.0085 42.2219 59.7477 42.2219C60.4869 42.2219 61.0862 42.8297 61.0862 43.5814C61.0862 44.3331 60.4869 44.9408 59.7477 44.9408Z" fill="#9B87FF"/>
<path opacity="0.2" d="M55.3359 44.1768C55.192 44.1768 55.0762 44.0608 55.0762 43.9169V40.5743C55.0762 40.4304 55.192 40.3145 55.3359 40.3145C55.4797 40.3145 55.5956 40.4304 55.5956 40.5743V43.9169C55.5956 44.0608 55.4797 44.1768 55.3359 44.1768Z" fill="white"/>
<path d="M58.3045 39.9146V45.5682C58.3045 46.2399 57.7611 46.7837 57.0898 46.7837H58.1966C58.8678 46.7837 59.4112 46.2399 59.4112 45.5682V39.9146H58.3045Z" fill="#8070F2"/>
<path d="M46.5249 16.0262H62.8787C63.7817 16.0262 64.5168 15.2866 64.5168 14.3869V5.73453C64.5168 4.83491 63.7817 4.09521 62.8787 4.09521H46.5249C45.6219 4.09521 44.8867 4.83491 44.8867 5.73453V14.3829C44.8867 15.2866 45.6259 16.0262 46.5249 16.0262Z" fill="#FFC73C"/>
<path d="M47.4727 19.1648V13.6831L51.7639 16.0261L47.4727 19.1648Z" fill="#FFC73C"/>
<path d="M57.2365 10.5999H48.2385C48.0427 10.5999 47.8789 10.4401 47.8789 10.2403V9.92064C47.8789 9.72086 48.0427 9.56104 48.2385 9.56104H57.2365C57.4323 9.56104 57.5961 9.72086 57.5961 9.92064V10.2403C57.5961 10.4361 57.4323 10.5999 57.2365 10.5999Z" fill="white"/>
<path d="M61.1686 10.5999H58.7034C58.5076 10.5999 58.3438 10.4401 58.3438 10.2403V9.92064C58.3438 9.72086 58.5076 9.56104 58.7034 9.56104H61.1686C61.3684 9.56104 61.5282 9.72086 61.5282 9.92064V10.2403C61.5282 10.4361 61.3684 10.5999 61.1686 10.5999Z" fill="white"/>
<path d="M52.1701 7.19434H61.1681C61.3679 7.19434 61.5277 7.35815 61.5277 7.55394V7.87358C61.5277 8.06936 61.3679 8.23318 61.1681 8.23318H52.1701C51.9704 8.23318 51.8105 8.06936 51.8105 7.87358V7.55394C51.8105 7.35815 51.9744 7.19434 52.1701 7.19434Z" fill="white"/>
<path d="M48.2385 7.19434H50.7038C50.8996 7.19434 51.0634 7.35815 51.0634 7.55394V7.87358C51.0634 8.06936 50.8996 8.23318 50.7038 8.23318H48.2385C48.0427 8.23318 47.8789 8.06936 47.8789 7.87358V7.55394C47.8789 7.35815 48.0387 7.19434 48.2385 7.19434Z" fill="white"/>
<path d="M54.3437 12.7595H48.2385C48.0427 12.7595 47.8789 12.5997 47.8789 12.3999V12.0803C47.8789 11.8845 48.0427 11.7207 48.2385 11.7207H54.3437C54.5395 11.7207 54.7033 11.8845 54.7033 12.0803V12.3999C54.7033 12.5957 54.5395 12.7595 54.3437 12.7595Z" fill="white"/>
<path d="M63.7126 19.4039C63.2731 19.3999 62.8456 19.3439 62.5459 18.9121C61.9546 18.0644 61.0516 17.3047 60.0407 18.1644C59.4574 18.6602 59.8969 19.6837 59.3935 20.1755C58.95 20.6113 58.3826 20.5394 58.1588 21.2591C57.8232 22.3226 58.878 23.2502 59.2177 24.1699C59.5013 24.9415 58.8621 25.2334 58.5784 25.8332C58.3586 26.297 58.4705 26.7928 58.7102 27.2326C59.1338 28.0122 60.0767 28.64 59.8569 29.6516C59.6731 30.4952 59.5053 31.2469 60.2485 31.8866C60.7599 32.3264 61.7029 32.7223 61.631 33.5339C61.607 33.8218 61.4072 34.0657 61.3513 34.3496C61.2634 34.7974 61.555 35.2332 61.8907 35.5411C62.6578 36.2408 63.3291 36.9005 63.9004 37.7801C64.1442 38.156 65.1271 39.0036 64.7355 39.5194C65.4467 38.5838 66.2019 37.6802 66.8491 36.6966C67.3805 35.8889 68.1837 34.7094 67.6363 33.7138C67.4645 33.406 67.1488 33.1741 67.0649 32.8302C66.9091 32.2105 67.5164 31.6387 67.7401 31.1149C68.0958 30.2913 67.836 29.3317 67.2087 28.7119C66.9131 28.4201 66.5934 28.0962 66.5495 27.6844C66.5015 27.2326 66.7852 26.8127 66.9131 26.3929C67.0329 26.0091 67.1049 25.6013 67.1488 25.2014C67.1808 24.9175 67.1928 24.6297 67.1248 24.3538C66.997 23.83 66.5255 23.5381 66.1779 23.1663C65.3468 22.2786 65.7823 21.2391 65.4187 20.2115C65.0991 19.2839 64.3879 19.4079 63.7126 19.4039Z" fill="#3DC8E8"/>
<path d="M64.8239 40.5713C65.1315 37.0288 64.8478 33.4623 64.1966 29.9718C63.5733 26.6452 62.7542 23.3066 61.5155 20.1519C61.104 19.1083 60.6445 18.0888 60.1211 17.0972" stroke="#26A8D1" stroke-width="5" stroke-miterlimit="10"/>
<path d="M57.3242 21.8477C59.0663 22.4634 60.7284 23.3071 62.2507 24.3467C62.6383 24.6106 62.8541 24.6905 63.1777 25.0304" stroke="#26A8D1" stroke-width="5" stroke-miterlimit="10"/>
<path d="M64.0045 28.8276C62.3343 27.748 60.4364 27.0123 58.4746 26.6924" stroke="#26A8D1" stroke-width="5" stroke-miterlimit="10"/>
<path d="M64.669 33.3942C63.1147 32.0468 61.2168 31.0912 59.207 30.6514" stroke="#26A8D1" stroke-width="5" stroke-miterlimit="10"/>
<path d="M63.0938 24.917C63.2136 23.0418 63.6811 21.1946 64.4602 19.4873" stroke="#26A8D1" stroke-width="5" stroke-miterlimit="10"/>
<path d="M63.9844 28.6724C64.7755 26.9811 65.9182 25.4537 67.3167 24.2183" stroke="#26A8D1" stroke-width="5" stroke-miterlimit="10"/>
<path d="M64.7715 33.5265C64.8794 33.0027 65.0712 32.4989 65.3389 32.0351C65.6465 31.4953 66.0501 31.0155 66.4616 30.5517C66.7573 30.2159 67.0569 29.884 67.3646 29.5562" stroke="#26A8D1" stroke-width="5" stroke-miterlimit="10"/>
<path d="M69.1123 25.857C69.432 25.9169 69.7476 25.9329 70.0273 25.661C70.5747 25.1293 71.3338 24.7014 71.9491 25.4651C72.3047 25.9049 71.8453 26.5886 72.1409 27.0125C72.4046 27.3883 72.8242 27.4163 72.8881 27.9721C72.984 28.7877 72.093 29.3155 71.7174 29.9352C71.4057 30.455 71.8293 30.7549 71.9531 31.2307C72.049 31.5985 71.8972 31.9424 71.6615 32.2303C71.2459 32.738 70.4748 33.0619 70.4948 33.8256C70.5107 34.4613 70.5307 35.0291 69.9034 35.3929C69.4719 35.6408 68.7327 35.7967 68.6728 36.3965C68.6528 36.6084 68.7607 36.8123 68.7607 37.0242C68.7607 37.3601 68.489 37.636 68.2053 37.8119C67.554 38.2117 66.9747 38.5995 66.4353 39.1553C66.2075 39.3952 65.3765 39.875 65.5882 40.2988C65.2007 39.5232 64.7811 38.7595 64.4455 37.9598C64.1698 37.3001 63.7503 36.3325 64.2857 35.6848C64.4535 35.4849 64.7132 35.3609 64.8251 35.125C65.0249 34.6972 64.6613 34.1974 64.5734 33.7856C64.4295 33.1379 64.7532 32.4781 65.2886 32.1143C65.5443 31.9424 65.82 31.7545 65.9079 31.4586C66.0038 31.1387 65.8559 30.7909 65.824 30.471C65.792 30.1751 65.796 29.8673 65.82 29.5754C65.836 29.3675 65.8679 29.1556 65.9558 28.9636C66.1196 28.5998 66.5032 28.4559 66.8069 28.2319C67.5341 27.7042 67.3583 26.8885 67.7658 26.1928C68.1254 25.5771 68.6209 25.769 69.1123 25.857Z" fill="#26A8D1"/>
<path d="M65.375 41.0587C65.6427 38.4478 66.3419 35.8969 67.2969 33.4579C68.2078 31.1309 69.2667 28.8238 70.6012 26.7087C71.0447 26.009 71.5162 25.3333 72.0356 24.6855" stroke="#3DC8E8" stroke-width="5" stroke-miterlimit="10"/>
<path d="M73.4075 28.5166C72.057 28.7204 70.7385 29.1039 69.4878 29.6473C69.1722 29.7872 69.0044 29.8152 68.7207 30.0149" stroke="#3DC8E8" stroke-width="5" stroke-miterlimit="10"/>
<path d="M67.5977 32.6535C68.9601 32.1021 70.4345 31.8344 71.9048 31.8704" stroke="#3DC8E8" stroke-width="5" stroke-miterlimit="10"/>
<path d="M66.4824 35.8762C67.797 35.1131 69.3033 34.6856 70.8256 34.6416" stroke="#3DC8E8" stroke-width="5" stroke-miterlimit="10"/>
<path d="M68.8003 29.9437C68.9721 28.5683 68.8882 27.1609 68.5605 25.8135" stroke="#3DC8E8" stroke-width="5" stroke-miterlimit="10"/>
<path d="M67.634 32.542C67.2944 31.2066 66.6791 29.9392 65.832 28.8477" stroke="#3DC8E8" stroke-width="5" stroke-miterlimit="10"/>
<path d="M66.391 35.957C66.383 35.5612 66.3151 35.1693 66.1872 34.7975C66.0394 34.3616 65.8116 33.9618 65.5799 33.5659C65.4121 33.282 65.2403 32.9982 65.0645 32.7183" stroke="#3DC8E8" stroke-width="5" stroke-miterlimit="10"/>
<path d="M62.2695 40.1553H68.7943L67.6515 46.6884H63.4163L62.2695 40.1553Z" fill="#EFB126"/>
<path d="M61.4747 40.1533H69.5977V38.3181H61.4747V40.1533Z" fill="#FFC73C"/>
<path opacity="0.1" d="M68.6424 41.0183H62.4214L62.2695 40.1553H68.7943L68.6424 41.0183Z" fill="#231F20"/>
<path d="M38.6212 43.8974C38.817 43.8654 39.0128 43.8334 39.2085 43.8014C40.1635 43.6535 41.1144 43.4736 42.0614 43.2697C43.9353 42.8618 45.8172 42.514 47.7231 42.33C47.9268 42.31 48.1266 42.2941 48.3304 42.2781C49.1854 42.2141 50.0804 42.1941 50.8635 42.6019C51.6467 43.0098 52.27 43.9774 52.0782 44.913C51.9423 45.5687 51.4429 46.0605 50.8875 46.3084C50.3321 46.5563 49.7168 46.6003 49.1175 46.6403C47.1717 46.7722 45.2258 46.9042 43.28 47.0321C42.3171 47.0961 41.3542 47.1641 40.3872 47.2321C39.4683 47.296 38.5333 47.428 37.6103 47.424C37.2188 47.424 36.7833 47.352 36.4556 47.0881C36.0001 46.7243 35.7244 45.9526 35.6805 45.3528C35.6565 45.0409 35.7204 44.6611 35.9602 44.4652C36.088 44.3612 36.2518 44.3292 36.4077 44.3012C37.1429 44.1653 37.878 44.0254 38.6212 43.8974Z" fill="#3DC8E8"/>
<path d="M36.4356 46.865C35.9641 46.9609 35.5966 47.3768 35.1291 47.5127C34.7935 47.6127 34.4378 47.5607 34.1142 47.4367C33.8185 47.3248 33.5189 47.2648 33.2152 47.1689C32.9795 47.0929 32.6598 46.933 32.4041 46.9849C31.7368 47.1249 31.0736 47.5967 30.4703 47.9045C30.3344 47.9725 30.1866 48.0445 30.0347 48.0165C29.8869 47.9885 29.759 47.8086 29.847 47.6806C29.6751 47.8446 29.4434 48.1684 29.1637 48.0405C29.0478 47.9885 28.9799 47.8366 29.0438 47.7286C28.948 47.8326 28.8481 47.9445 28.7122 47.9965C28.5804 48.0485 28.4046 48.0245 28.3286 47.9085C28.2927 47.8526 28.2807 47.7846 28.2767 47.7166C28.2647 47.4847 28.3366 47.2568 28.4325 47.0489C28.908 46.0134 29.9828 45.2417 30.8938 44.622C31.0536 44.514 31.2214 44.4021 31.4052 44.3461C31.573 44.2941 31.7488 44.2901 31.9246 44.2901C33.0594 44.2861 34.1941 44.47 35.2649 44.8299C35.4967 44.9098 35.7524 44.8419 35.9841 44.7979C36.1559 44.7659 36.3357 44.7339 36.5035 44.7819C36.6913 44.8379 36.8352 44.9858 36.9511 45.1457C37.1628 45.4376 37.3226 45.8214 37.2947 46.1893C37.2747 46.4692 37.2547 46.769 36.9271 46.825C36.7952 46.849 36.6594 46.833 36.5235 46.849C36.5035 46.853 36.4676 46.861 36.4356 46.865Z" fill="#F8A17A"/>
<path d="M70.9094 49.1072H1.78239C1.07918 49.1072 0.507812 48.5634 0.507812 47.8917C0.507812 47.22 1.07918 46.6763 1.78239 46.6763H70.9094C71.6126 46.6763 72.184 47.22 72.184 47.8917C72.184 48.5634 71.6126 49.1072 70.9094 49.1072Z" fill="#DBCDFE"/>
<path d="M16.9617 5.71045H14.3806C13.2818 5.71045 12.3828 6.61006 12.3828 7.70958C12.3828 8.38928 12.7264 8.99302 13.2498 9.35286V10.7603L14.6882 9.70871H16.9657C18.0645 9.70871 18.9635 8.8091 18.9635 7.70958C18.9595 6.61006 18.0605 5.71045 16.9617 5.71045Z" fill="#DBCDFE"/>
<path d="M14.2255 8.01308C14.3932 8.01308 14.5292 7.87713 14.5292 7.70942C14.5292 7.54171 14.3932 7.40576 14.2255 7.40576C14.0578 7.40576 13.9219 7.54171 13.9219 7.70942C13.9219 7.87713 14.0578 8.01308 14.2255 8.01308Z" fill="white"/>
<path d="M15.6708 8.01308C15.8386 8.01308 15.9745 7.87713 15.9745 7.70942C15.9745 7.54171 15.8386 7.40576 15.6708 7.40576C15.5031 7.40576 15.3672 7.54171 15.3672 7.70942C15.3672 7.87713 15.5031 8.01308 15.6708 8.01308Z" fill="white"/>
<path d="M17.1162 8.01308C17.2839 8.01308 17.4198 7.87713 17.4198 7.70942C17.4198 7.54171 17.2839 7.40576 17.1162 7.40576C16.9485 7.40576 16.8125 7.54171 16.8125 7.70942C16.8125 7.87713 16.9485 8.01308 17.1162 8.01308Z" fill="white"/>
<path d="M55.9973 23.2104C55.5978 22.5267 54.5949 22.1869 53.624 23.3224C52.653 22.1869 51.6462 22.5267 51.2506 23.2104C50.2677 24.8897 53.624 26.8688 53.624 26.8688C53.624 26.8688 56.9802 24.8897 55.9973 23.2104Z" fill="#DBCDFE"/>
<path d="M33.3313 6.08179H28.3369C28.0732 6.08179 27.8574 5.86588 27.8574 5.60198V2.58722C27.8574 2.32333 28.0732 2.10742 28.3369 2.10742H33.3313C33.595 2.10742 33.8108 2.32333 33.8108 2.58722V5.60198C33.8108 5.86588 33.595 6.08179 33.3313 6.08179Z" fill="#DBCDFE"/>
<path d="M27.9531 2.23535L30.5582 4.76228C30.7061 4.90622 30.9578 4.90622 31.1056 4.76228L33.7107 2.23535" stroke="white" stroke-width="4" stroke-miterlimit="10"/>
<path d="M27.9531 5.95337L30.0947 4.31006" stroke="white" stroke-width="4" stroke-miterlimit="10"/>
<path d="M33.7157 5.95337L31.5781 4.31006" stroke="white" stroke-width="4" stroke-miterlimit="10"/>
<path d="M23.2094 21.59H17.292C17.0283 21.59 16.8125 21.3741 16.8125 21.1102V17.2918C16.8125 17.0279 17.0283 16.812 17.292 16.812H23.2094C23.4731 16.812 23.6888 17.0279 23.6888 17.2918V21.1102C23.6888 21.3741 23.4731 21.59 23.2094 21.59Z" fill="#DBCDFE"/>
<path d="M20.2496 23.1019L21.4563 21.4746H19.043L20.2496 23.1019Z" fill="#DBCDFE"/>
<path d="M22.0585 19.8151H21.7628V19L21.7668 18.8682L21.7708 18.7203C21.7229 18.7683 21.6869 18.8003 21.6669 18.8162L21.5071 18.9481L21.3633 18.7683L21.8148 18.4087H22.0585V19.8151Z" fill="white"/>
<path d="M19.8531 18.3599H18.8782C18.4627 18.3599 18.123 18.6997 18.123 19.1156C18.123 19.3715 18.2509 19.5994 18.4507 19.7353V20.2671L18.9941 19.8713H19.8531C20.2686 19.8713 20.6082 19.5314 20.6082 19.1156C20.6082 18.6997 20.2686 18.3599 19.8531 18.3599Z" fill="white"/>
</svg>
